<svg width="34" height="34" viewBox="0 0 34 34" fill="none" xmlns="http://www.w3.org/2000/svg">
<path d="M17 0.333374C18.1506 0.333374 19.0833 1.26611 19.0833 2.41671V14.9167H31.5833C32.7339 14.9167 33.6667 15.8495 33.6667 17.0001C33.6667 18.1506 32.7339 19.0834 31.5833 19.0834H19.0833V31.5834C19.0833 32.734 18.1506 33.6667 17 33.6667C15.8494 33.6667 14.9167 32.734 14.9167 31.5834V19.0834H2.41668C1.26608 19.0834 0.333344 18.1506 0.333344 17.0001C0.333344 15.8495 1.26608 14.9167 2.41668 14.9167H14.9167V2.41671C14.9167 1.26611 15.8494 0.333374 17 0.333374Z" fill="#E7E7E7"/>
</svg>
